<?xml version="1.0" encoding="UTF-8"?>
<svg width="44px" height="28px" viewBox="0 0 44 28" version="1.1" xmlns="http://www.w3.org/2000/svg" xmlns:xlink="http://www.w3.org/1999/xlink">
    <title>31C0EFDA-8CFD-4CA8-ABFA-F0C9E44C988A</title>
    <g id="Symbols" stroke="none" stroke-width="1" fill="none" fill-rule="evenodd">
        <g id="mastercard" transform="translate(2.000000, 0.000000)">
            <rect id="Rectangle" x="0" y="0" width="40" height="28"></rect>
            <g id="Group" transform="translate(4.701832, 4.666521)" fill-rule="nonzero">
                <rect id="Rectangle" fill="#FF5F00" x="11.1535289" y="1.99561266" width="8.2673368" height="14.6757333"></rect>
                <path d="M11.6784916,9.33347932 C11.6758448,6.4696522 13.0066098,3.76372213 15.2872235,1.99561266 C11.413423,-1.01221052 5.85006753,-0.574433077 2.5071718,3.00126804 C-0.835723933,6.57696916 -0.835723933,12.0899895 2.5071718,15.6656906 C5.85006753,19.2413917 11.413423,19.6791692 15.2872235,16.671346 C13.0066255,14.903224 11.6758645,12.197302 11.6784916,9.33347932 Z" id="Path" fill="#EB001B"></path>
                <path d="M30.5739754,9.33347932 C30.5739754,12.90676 28.5088581,16.1664578 25.25532,17.7282041 C22.001782,19.2899504 18.131139,18.8795691 15.2872235,16.671346 C17.5657084,14.9015435 18.8959296,12.1966999 18.8959296,9.33347932 C18.8959296,6.4702588 17.5657084,3.7654151 15.2872235,1.99561266 C18.131139,-0.212610453 22.001782,-0.622991753 25.25532,0.938754554 C28.5088581,2.50050086 30.5739754,5.76019869 30.5739754,9.33347932 L30.5739754,9.33347932 Z" id="Path" fill="#F79E1B"></path>
                <path d="M29.672547,15.1169571 L29.672547,14.8165015 L29.7951923,14.8165015 L29.7951923,14.7552904 L29.4828445,14.7552904 L29.4828445,14.8165015 L29.6055422,14.8165015 L29.6055422,15.1169571 L29.672547,15.1169571 Z M30.2789496,15.1169571 L30.2789496,14.7546941 L30.183206,14.7546941 L30.0730824,15.0038682 L29.9629274,14.7546941 L29.8671313,14.7546941 L29.8671313,15.1169571 L29.9347397,15.1169571 L29.9347397,14.8436978 L30.0380158,15.0792867 L30.1081176,15.0792867 L30.2113963,14.8431015 L30.2113963,15.1169571 L30.2789496,15.1169571 Z" id="Shape" fill="#F79E1B"></path>
            </g>
        </g>
    </g>
</svg>