<?xml version="1.0" encoding="UTF-8"?>
<svg width="44px" height="28px" viewBox="0 0 44 28" version="1.1" xmlns="http://www.w3.org/2000/svg" xmlns:xlink="http://www.w3.org/1999/xlink">
    <title>530C2BE3-CE46-4028-8887-78E54D6E9162</title>
    <defs>
        <polygon id="path-1" points="0 0 35 0 35 22 0 22"></polygon>
    </defs>
    <g id="Symbols" stroke="none" stroke-width="1" fill="none" fill-rule="evenodd">
        <g id="unionpay" transform="translate(4.500000, 3.000000)">
            <g id="Group-5">
                <mask id="mask-2" fill="white">
                    <use xlink:href="#path-1"></use>
                </mask>
                <g id="Clip-2"></g>
                <path d="M6.83513529,0 L15.5770557,0 C16.7969727,0 17.5566595,1.00014954 17.2719303,2.23183042 L13.2018585,19.7965455 C12.9138566,21.0245252 11.6927123,22.0246747 10.4719771,22.0246747 L1.73005669,22.0246747 C0.509321489,22.0246747 -0.249547075,21.0245252 0.0351820466,19.7965455 L4.10811759,2.23183042 C4.39161943,1.00014954 5.61194553,0 6.83513529,0" id="Fill-1" fill="#D93036" mask="url(#mask-2)"></path>
                <path d="M14.8496873,0 L24.9031617,0 C26.1230787,0 25.573257,1.00014954 25.2864824,2.23183042 L21.2155923,19.7965455 C20.9312723,21.0245252 21.0208638,22.0246747 19.797674,22.0246747 L9.74501782,22.0246747 C8.52305534,22.0246747 7.76623225,21.0245252 8.05341593,19.7965455 L12.1214423,2.23183042 C12.4098533,1.00014954 13.6289521,0 14.8496873,0" id="Fill-3" fill="#213152" mask="url(#mask-2)"></path>
                <path d="M24.5055228,0 L33.2462159,0 C34.4669511,0 35.2258196,1.00014954 34.9398632,2.23183042 L30.8702005,19.7965455 C30.5842441,21.0245252 29.3635089,22.0246747 28.1386827,22.0246747 L19.4008533,22.0246747 C18.1776635,22.0246747 17.4200222,21.0245252 17.7067968,19.7965455 L21.7752323,2.23183042 C22.0620069,1.00014954 23.2819239,0 24.5055228,0" id="Fill-4" fill="#10625B" mask="url(#mask-2)"></path>
            </g>
            <path d="M25.9357139,12.9702782 L24.8708433,16.5139824 L25.1567997,16.5139824 L24.9358892,17.2468222 L24.6491146,17.2468222 L24.5828414,17.4742411 L23.5686985,17.4742411 L23.6374262,17.2468222 L21.5768219,17.2468222 L21.7842324,16.5682668 L21.992461,16.5682668 L23.0728771,12.9702782 L23.2892876,12.2431958 L24.3234761,12.2431958 L24.2150663,12.6104382 C24.2150663,12.6104382 24.4903863,12.410984 24.7517971,12.3427172 C25.0132079,12.2736279 26.5125358,12.2485419 26.5125358,12.2485419 L26.290398,12.9702782 L25.9357139,12.9702782 Z M24.113202,12.9702782 L23.8395184,13.8758412 C23.8395184,13.8758412 24.1459295,13.7368401 24.314067,13.6907806 C24.4834317,13.6463661 24.7378879,13.629505 24.7378879,13.629505 L24.9358892,12.9702782 L24.113202,12.9702782 Z M23.7036994,14.325744 L23.4206066,15.2679079 C23.4206066,15.2679079 23.7339723,15.1066996 23.9021098,15.0565276 C24.0714745,15.017048 24.3275671,14.9849708 24.3275671,14.9849708 L24.5280229,14.325744 L23.7036994,14.325744 Z M23.0442405,16.5242635 L23.8685641,16.5242635 L24.1066565,15.7276806 L23.2827421,15.7276806 L23.0442405,16.5242635 L23.0442405,16.5242635 Z" id="Fill-6" fill="#FFFFFE"></path>
            <path d="M26.3930805,12.2485419 L27.4968149,12.2485419 L27.5090877,12.6622551 C27.5029513,12.7313444 27.5622699,12.7646553 27.6899071,12.7646553 L27.9144994,12.7646553 L27.7091345,13.4473232 L27.1134942,13.4473232 C26.5964,13.485569 26.4012623,13.2618514 26.412717,13.0114027 L26.3930805,12.2485419" id="Fill-7" fill="#FFFFFE"></path>
            <path d="M26.5378996,15.4879243 L25.4857109,15.4879243 L25.6661212,14.8788694 L26.8688563,14.8788694 L27.0414938,14.3245102 L25.853077,14.3245102 L26.0572147,13.6385524 L29.3626907,13.6385524 L29.1552802,14.3245102 L28.0470458,14.3245102 L27.8735901,14.8788694 L28.9842791,14.8788694 L28.8014143,15.4879243 L27.5986792,15.4879243 L27.3859506,15.7441304 L27.8735901,15.7441304 L27.9918181,16.5098699 C28.0045,16.5851279 28.0069546,16.6348886 28.030682,16.6681995 C28.0552276,16.6965754 28.201274,16.7093241 28.2859564,16.7093241 L28.4340483,16.7093241 L28.2090468,17.4553238 L27.833908,17.4553238 C27.7762258,17.4553238 27.6899071,17.4499776 27.5724972,17.4438089 C27.4587692,17.433939 27.3781778,17.3681397 27.3029046,17.3315388 C27.2337678,17.2969942 27.1310853,17.2131 27.1077669,17.0703978 L26.9895389,16.305892 L26.4438081,17.0601166 C26.2699433,17.2969942 26.0351236,17.4783535 25.639121,17.4783535 L24.8724797,17.4783535 L25.0729355,16.8133692 L25.3658465,16.8133692 C25.4505289,16.8133692 25.525393,16.7804696 25.5798025,16.7516824 C25.6366665,16.7278301 25.6861668,16.6990429 25.7426217,16.61556 L26.5378996,15.4879243" id="Fill-8" fill="#FFFFFE"></path>
            <path d="M15.0137339,13.8232017 L17.799661,13.8232017 L17.5934779,14.4922985 L16.4795161,14.4922985 L16.3060604,15.0602288 L17.4462042,15.0602288 L17.2383847,15.7511216 L16.0994682,15.7511216 L15.82333,16.6776581 C15.7893753,16.7804696 16.0921045,16.7948632 16.2021507,16.7948632 L16.7732453,16.715904 L16.5441529,17.4787648 L15.2587809,17.4787648 C15.1577348,17.4787648 15.0787797,17.4643712 14.9666881,17.4392852 C14.8586874,17.4117317 14.8108234,17.3632047 14.7625504,17.2891805 C14.7163228,17.2131 14.6451406,17.1518244 14.6934136,16.9906161 L15.0620069,15.7626365 L14.4295482,15.7626365 L14.6394132,15.0602288 L15.2751446,15.0602288 L15.4441003,14.4922985 L14.8108234,14.4922985 L15.0137339,13.8232017" id="Fill-9" fill="#FFFFFE"></path>
            <path d="M16.8898369,12.6223643 L18.0324353,12.6223643 L17.8233885,13.321482 L16.2618783,13.321482 L16.0921045,13.4682967 C16.0205131,13.539031 15.9947402,13.5094213 15.9006487,13.560827 C15.8122845,13.6056528 15.6261469,13.6944818 15.386009,13.6944818 L14.8848694,13.6944818 L15.088598,13.0216839 L15.2391444,13.0216839 C15.3663725,13.0216839 15.4526913,13.0114027 15.4960552,12.9830268 C15.5463737,12.9517721 15.6011922,12.8806266 15.6654199,12.7646553 L15.9521945,12.240317 L17.0890655,12.240317 L16.8898369,12.6223643" id="Fill-10" fill="#FFFFFE"></path>
            <path d="M18.5229385,12.2485419 L19.4965811,12.2485419 L19.3554439,12.7408031 C19.3554439,12.7408031 19.662264,12.4944669 19.8774473,12.4060491 C20.0918123,12.3254449 20.5778154,12.2530656 20.5778154,12.2530656 L22.1524166,12.2448407 L21.6156858,14.0415732 C21.5256852,14.3500075 21.4205482,14.5490504 21.3546841,14.6395245 C21.2949565,14.732466 21.2254106,14.8101914 21.087546,14.8850381 C20.9549997,14.9565949 20.833908,14.9977195 20.7226346,15.0088231 C20.6183157,15.0166368 20.4587692,15.0211605 20.2374496,15.0228054 L18.7209397,15.0228054 L18.2922097,16.4453043 C18.2517094,16.5851279 18.2320729,16.6521609 18.258664,16.6899955 C18.2815733,16.7241289 18.33271,16.7623748 18.4038922,16.7623748 L19.0727602,16.6990429 L18.8448951,17.4787648 L18.0950266,17.4787648 C17.856525,17.4787648 17.6830694,17.4738298 17.5611595,17.4643712 C17.4462042,17.4553238 17.3251125,17.4643712 17.2453393,17.4010393 C17.1745661,17.3393525 17.0686108,17.2587483 17.0710235,17.1752654 C17.0792473,17.0983625 17.1099293,16.9700538 17.1598387,16.7948632 L18.5229385,12.2485419 Z M20.5904973,14.0641917 L18.9942142,14.0641917 L18.8964409,14.3882533 L20.2771317,14.3882533 C20.4407691,14.3672798 20.4743148,14.391132 20.4878149,14.3833184 L20.5904973,14.0641917 Z M19.0825785,13.771796 C19.0825785,13.771796 19.3938987,13.485569 19.9277658,13.3922162 C20.0492666,13.3687752 20.8085442,13.3761777 20.8085442,13.3761777 L20.9239086,12.9924854 L19.3153527,12.9924854 L19.0825785,13.771796 L19.0825785,13.771796 Z" id="Fill-11" fill="#FFFFFE"></path>
            <path d="M21.3616387,15.1490579 L21.2724563,15.5808659 C21.2323651,15.714932 21.1992286,15.8181546 21.0977734,15.9045162 C20.9926363,15.994579 20.8670446,16.0895768 20.5745427,16.0895768 L20.0353574,16.1113728 L20.0304482,16.6007552 C20.0230846,16.739345 20.0603121,16.7245402 20.0828122,16.7471587 C20.1073578,16.7705997 20.1290398,16.7817033 20.1539945,16.789517 L20.3241774,16.7817033 L20.8400444,16.7516824 L20.6277249,17.4643712 L20.0353574,17.4643712 C19.6201274,17.4643712 19.312489,17.4553238 19.2106247,17.3743084 C19.1120332,17.3109765 19.0985331,17.2307836 19.1013968,17.0946613 L19.1390334,15.1922387 L20.0836304,15.1922387 L20.0717667,15.5808659 L20.2996318,15.5808659 C20.3773596,15.5808659 20.4280872,15.5730522 20.462042,15.5529012 C20.4894512,15.5298714 20.5111332,15.5002617 20.5258606,15.4525572 L20.6179066,15.1490579 L21.3616387,15.1490579" id="Fill-12" fill="#FFFFFE"></path>
            <path d="M7.86973292,5.61144758 C7.83536906,5.76443099 7.2290924,8.57899656 7.22704693,8.58064154 C7.09572789,9.14939435 7.00286365,9.55735008 6.67967974,9.81766861 C6.49599673,9.96900703 6.28204079,10.0438537 6.03453919,10.0438537 C5.63690024,10.0438537 5.40330781,9.84481083 5.36362574,9.46687603 L5.35626205,9.33774488 C5.35626205,9.33774488 5.47735375,8.57447286 5.47899012,8.57118289 C5.47899012,8.57118289 6.11513062,6.00583221 6.22926772,5.66819949 C6.23417685,5.64928219 6.23663141,5.63982354 6.23908597,5.62995364 C4.99953246,5.64105728 4.77862194,5.62995364 4.76471276,5.61144758 C4.75775817,5.63653357 4.72421249,5.7960969 4.72421249,5.7960969 L4.07416282,8.68468671 L4.01770791,8.93143413 L3.91134358,9.73212951 C3.91134358,9.96900703 3.95798025,10.1639375 4.0500263,10.3280245 C4.34661913,10.8494841 5.19221553,10.9267983 5.66921863,10.9267983 C6.28531354,10.9267983 6.86213547,10.7947884 7.25200164,10.5558546 C7.92946058,10.1528339 8.10782538,9.52198295 8.26573549,8.96433378 L8.33896324,8.67851802 C8.33896324,8.67851802 8.99555841,6.01487962 9.10765005,5.66819949 C9.1109228,5.64928219 9.11296827,5.63982354 9.1174683,5.62995364 C8.21909883,5.63982354 7.95482438,5.62995364 7.86973292,5.61144758" id="Fill-13" fill="#FFFFFE"></path>
            <path d="M11.4979838,10.8980111 C11.0577991,10.8922536 10.9031617,10.8922536 10.3893402,10.9181621 L10.3692946,10.8799163 C10.414704,10.6837521 10.4633861,10.4896441 10.506341,10.2901899 L10.5693414,10.0216465 C10.6646602,9.60299836 10.7579335,9.1156722 10.7693881,8.96885748 C10.7779791,8.87920592 10.8074338,8.656722 10.554614,8.656722 C10.4474315,8.656722 10.336158,8.70936145 10.2236573,8.76076716 C10.1618842,8.98366233 10.0358833,9.60752206 9.97861025,9.89374907 C9.85015487,10.4941678 9.841973,10.5620233 9.78510899,10.859354 L9.74829057,10.8980111 C9.29460581,10.8922536 9.13833207,10.8922536 8.61673777,10.9181621 L8.59178306,10.8749813 C8.67973818,10.5176088 8.76646602,10.1577688 8.84951201,9.80204127 C9.06837707,8.83479139 9.11992286,8.46467026 9.1808778,7.97323164 L9.22178715,7.9440332 C9.73029046,7.8720652 9.85301853,7.85808285 10.4032494,7.74457903 L10.449886,7.79680724 L10.3672491,8.10483027 C10.4601134,8.0493121 10.5480685,7.99297144 10.6437964,7.9440332 C10.9031617,7.81572454 11.1923909,7.77788994 11.3515283,7.77788994 C11.5916662,7.77788994 11.8547133,7.84574548 11.9651686,8.12539255 C12.0698966,8.37542994 12.0011688,8.68345297 11.8637134,9.28962913 L11.7925311,9.59765216 C11.6513938,10.2725064 11.6280755,10.3962913 11.5495295,10.859354 L11.4979838,10.8980111" id="Fill-14" fill="#FFFFFE"></path>
            <path d="M13.2832681,10.8980111 C13.0189936,10.8967773 12.8488107,10.8922536 12.6823096,10.8967773 C12.5166267,10.8980111 12.3554439,10.9066472 12.1095786,10.9181621 L12.0944422,10.8967773 L12.0780784,10.8749813 C12.1455789,10.6191865 12.1832155,10.5291237 12.215943,10.4386496 C12.2494886,10.3485868 12.2822161,10.256879 12.3403074,9.99779423 C12.417217,9.65933902 12.4646718,9.42287274 12.4986266,9.21560491 C12.5338087,9.01450576 12.5538542,8.84466128 12.578809,8.6468521 L12.5992636,8.63122476 L12.6213547,8.61230746 C12.8844018,8.57447286 13.0525393,8.55020936 13.2227222,8.52347839 C13.3957688,8.4983924 13.5692245,8.46467026 13.8420899,8.41244205 L13.8527263,8.43670555 L13.86009,8.46096904 C13.8093624,8.67029311 13.7578166,8.87920592 13.7083163,9.09264244 C13.6596342,9.30443398 13.6080884,9.5125243 13.5622699,9.7230821 C13.4628601,10.1688724 13.4239963,10.3341932 13.3998597,10.4530432 C13.3781778,10.566547 13.3708141,10.6282339 13.3315411,10.859354 L13.3078137,10.8799163 L13.2832681,10.8980111" id="Fill-15" fill="#FFFFFE"></path>
            <path d="M17.2330664,9.37722447 C17.3872947,8.69702408 17.2686576,8.3795424 17.1177021,8.18502318 C16.8877915,7.89139375 16.4840161,7.79639599 16.0642861,7.79639599 C15.8122845,7.79639599 15.2117351,7.82230447 14.7416866,8.25822491 C14.4058208,8.57118289 14.2487289,8.99805593 14.1542283,9.40560042 C14.0597277,9.82054733 13.9504997,10.571482 14.6353223,10.8498953 C14.848051,10.9395469 15.1507802,10.9650441 15.3479633,10.9650441 C15.8503302,10.9650441 16.3649699,10.8256318 16.750336,10.4135636 C17.0506107,10.0783984 17.1864298,9.58079109 17.2330664,9.37722447 M16.0835135,9.32787498 C16.059377,9.44179004 15.9603764,9.86825183 15.8241482,10.0500224 C15.7304658,10.183266 15.6187832,10.263459 15.4948279,10.263459 C15.4600549,10.263459 15.2432353,10.263459 15.2391444,9.93898609 C15.2362808,9.77983401 15.2694173,9.61369074 15.3090994,9.43685509 C15.4248729,8.92197547 15.5619192,8.49016749 15.9096488,8.49016749 C16.1841505,8.49016749 16.2021507,8.81135038 16.0835135,9.32787498" id="Fill-16" fill="#FFFFFE"></path>
            <path d="M27.9819999,10.9440706 C27.4518146,10.9395469 27.2992227,10.9395469 26.8087195,10.9601092 L26.7759921,10.9206296 C26.9097656,10.4135636 27.0439483,9.90773142 27.1625855,9.39573052 C27.3159956,8.73033498 27.3507685,8.44780918 27.4027234,8.05918199 L27.4419964,8.02587109 C27.9684998,7.94979064 28.1145462,7.92922835 28.6639589,7.82723942 L28.6811408,7.87247645 C28.5800947,8.28947959 28.4794577,8.70689397 28.3837298,9.1255421 C28.1812284,10.0023179 28.1075916,10.4485195 28.0302729,10.9066472 L27.9819999,10.9440706" id="Fill-17" fill="#FFFFFE"></path>
            <path d="M28.2340015,9.43726634 C28.3882298,8.76076716 27.7680439,9.37763571 27.6690433,9.15391805 C27.5164514,8.80641543 27.6117702,8.09989532 27.0005844,7.86466278 C26.7661738,7.77295499 26.2134884,7.89139375 25.7430308,8.32443547 C25.4092104,8.63615971 25.2504821,9.05768656 25.1567997,9.4648198 C25.06189,9.87442052 24.9530711,10.6232989 25.634621,10.8922536 C25.8498042,10.9839614 26.0473964,11.0106924 26.2441704,11.0028787 C26.9294021,10.9650441 27.4522237,9.92541498 27.8379989,9.51293555 C28.1362282,9.18722895 28.1885921,9.63589801 28.2340015,9.43726634 M27.1846765,9.38668312 C27.1593127,9.49525198 27.059903,9.92705997 26.9236748,10.1051294 C26.8336742,10.233438 26.6193092,10.3140422 26.4965811,10.3140422 C26.4618082,10.3140422 26.2462159,10.3140422 26.2384431,9.99327052 C26.2368067,9.83535218 26.2699433,9.66920891 26.3112618,9.49072828 C26.4266261,8.9869523 26.5636725,8.55678929 26.911402,8.55678929 C27.1859038,8.55678929 27.3029046,8.86974727 27.1846765,9.38668312" id="Fill-18" fill="#FFFFFE"></path>
            <path d="M20.2362223,10.8980111 C19.7952194,10.8922536 19.6459003,10.8922536 19.1275788,10.9181621 L19.1087604,10.8799163 C19.1525335,10.6837521 19.2024429,10.4896441 19.2486704,10.2901899 L19.3104436,10.0216465 C19.4061715,9.60299836 19.4990357,9.1156722 19.509263,8.96885748 C19.5182631,8.87920592 19.5473087,8.656722 19.2961253,8.656722 C19.1873064,8.656722 19.0776693,8.70936145 18.9643504,8.76076716 C18.9033955,8.98366233 18.7769856,9.60752206 18.7164397,9.89374907 C18.590848,10.4941678 18.5826661,10.5620233 18.525393,10.859354 L18.4877564,10.8980111 C18.0348898,10.8922536 17.8790252,10.8922536 17.3586582,10.9181621 L17.3349307,10.8749813 C17.4216586,10.5176088 17.50675,10.1577688 17.5902051,9.80204127 C17.8086611,8.83479139 17.8602069,8.46467026 17.9207527,7.97323164 L17.9620712,7.9440332 C18.4701654,7.8720652 18.5937116,7.85808285 19.1439425,7.74457903 L19.1873064,7.79680724 L19.1079423,8.10483027 C19.1979428,8.0493121 19.2899889,7.99297144 19.3840804,7.9440332 C19.6418094,7.81572454 19.933084,7.77788994 20.0889486,7.77788994 C20.3294956,7.77788994 20.593361,7.84574548 20.7066799,8.12539255 C20.8101806,8.37542994 20.7402256,8.68345297 20.6015429,9.28962913 L20.5324061,9.59765216 C20.3888142,10.2725064 20.3663141,10.3962913 20.2902227,10.859354 L20.2362223,10.8980111" id="Fill-19" fill="#FFFFFE"></path>
            <path d="M24.5214774,7.25807537 C24.4441587,7.60845671 24.21793,7.90578735 23.9254281,8.0493121 C23.6836538,8.17145207 23.3895155,8.18049948 23.0851499,8.18049948 L22.8891941,8.18049948 L22.9035124,8.10195155 C22.9035124,8.10195155 23.2667874,6.51824435 23.2651511,6.5231793 L23.2757875,6.4421639 L23.282333,6.37965455 L23.4271521,6.39487064 C23.4271521,6.39487064 24.1725206,6.45943622 24.1913389,6.46190369 C24.4862954,6.57458502 24.6065689,6.87191566 24.5214774,7.25807537 M24.0457016,5.60651264 C24.0436561,5.60651264 23.6807901,5.61144758 23.6807901,5.61144758 C22.7304658,5.62213997 22.3491906,5.61761627 22.1929168,5.59869897 C22.1765531,5.66861074 22.1524166,5.79280694 22.1524166,5.79280694 L21.813278,7.38103783 C21.813278,7.38103783 20.9991818,10.7544863 20.960727,10.9128159 C21.7899597,10.9037685 22.1303255,10.9037685 22.2718719,10.9181621 C22.3050085,10.7598325 22.4985097,9.81766861 22.4985097,9.81766861 C22.4985097,9.81766861 22.6637835,9.1255421 22.6740109,9.10004486 C22.6740109,9.10004486 22.7251476,9.02889936 22.7779206,9.00093465 L22.8536029,9.00093465 C23.5678803,9.00093465 24.3774765,9.00093465 25.0099351,8.5317033 C25.4398925,8.21052041 25.7364853,7.73635412 25.8673952,7.16102138 C25.9021682,7.01955286 25.9267138,6.85011964 25.9267138,6.68233139 C25.9267138,6.46190369 25.8825317,6.24353223 25.7540763,6.07245402 C25.4313015,5.61761627 24.7902519,5.61144758 24.0457016,5.60651264" id="Fill-20" fill="#FFFFFE"></path>
            <path d="M32.3261645,7.82230447 L32.2836187,7.77501122 C31.7423879,7.88358008 31.6429782,7.90249738 31.1438841,7.96870794 L31.1062474,8.00530881 C31.1046111,8.01147749 31.1029747,8.02134739 31.1021565,8.02874981 L31.0992929,8.02134739 C30.7278359,8.88414087 30.7401087,8.69743532 30.4365613,9.37557948 C30.4349249,9.34350232 30.4345158,9.32294003 30.4336976,9.29127411 L30.3580153,7.82230447 L30.3105605,7.77501122 C29.7431477,7.88358008 29.7284203,7.90249738 29.2035533,7.96870794 L29.1610075,8.00530881 C29.1577348,8.02422611 29.1565075,8.04355466 29.1532348,8.0637057 L29.1577348,8.07151937 C29.2231898,8.40997458 29.2080533,8.33430537 29.2726901,8.86522357 C29.3037812,9.1255421 29.3438724,9.38956184 29.3741453,9.64700164 C29.4269184,10.0783984 29.4551458,10.2918349 29.517328,10.9490055 C29.1642803,11.5391431 29.0791888,11.761627 28.7412775,12.2785629 L28.7596868,12.3254449 C29.2726901,12.3065276 29.3913272,12.3065276 29.770966,12.3065276 L29.8548302,12.2123523 C30.1411957,11.5905488 32.3261645,7.82230447 32.3261645,7.82230447" id="Fill-21" fill="#FFFFFE"></path>
            <path d="M13.7668167,8.18707941 C14.0564549,7.98351279 14.0936824,7.70222073 13.8482263,7.5562285 C13.5994974,7.40941379 13.1666764,7.45547331 12.8737654,7.65945117 C12.578809,7.86055032 12.5464906,8.14266487 12.7923558,8.28947959 C13.0386301,8.43341558 13.4734966,8.39105728 13.7668167,8.18707941" id="Fill-22" fill="#FFFFFE"></path>
            <path d="M29.8163754,12.2641693 L29.3892817,12.9990654 C29.2542809,13.249514 29.0035065,13.4382758 28.6050494,13.4399207 L27.9251359,13.4284059 L28.122319,12.7663003 L28.2548653,12.7663003 C28.3244112,12.7663003 28.3755479,12.7617766 28.4148209,12.742448 C28.4483665,12.7313444 28.4737303,12.7046134 28.5011396,12.6655451 L28.751914,12.2641693 L29.8163754,12.2641693" id="Fill-23" fill="#FFFFFE"></path>
        </g>
    </g>
</svg>