<?xml version="1.0" encoding="UTF-8"?>
<svg width="124px" height="28px" viewBox="0 0 124 28" version="1.1" xmlns="http://www.w3.org/2000/svg" xmlns:xlink="http://www.w3.org/1999/xlink">
    <title>DF4CB1F6-575F-4943-9736-6AC59CC8D614</title>
    <g id="Symbols" stroke="none" stroke-width="1" fill="none" fill-rule="evenodd">
        <g id="_Assets/Icons/ic_stripe/Light-Mode" fill="#635BFF" fill-rule="nonzero">
            <g id="Powered-by-Stripe">
                <path d="M120.693333,0 L3.08346667,0 C1.38051505,0 0,1.3752759 0,3.07176471 L0,24.9282353 C0,26.6247241 1.38051505,28 3.08346667,28 L120.693333,28 C122.519555,28 124,26.5251733 124,24.7058824 L124,3.29411765 C124,1.47482671 122.519555,0 120.693333,0 Z M123.173333,24.7058824 C123.173333,26.0703506 122.063,27.1764706 120.693333,27.1764706 L3.08346667,27.1764706 C1.83895324,27.171954 0.831200458,26.1680257 0.826666667,24.9282353 L0.826666667,3.07176471 C0.831200458,1.83197429 1.83895324,0.828045997 3.08346667,0.823529412 L120.693333,0.823529412 C122.063,0.823529412 123.173333,1.92964944 123.173333,3.29411765 L123.173333,24.7058824 Z" id="Shape"></path>
                <path d="M14.1112,9.25647059 L10.5565333,9.25647059 L10.5565333,18.1176471 L12.1437333,18.1176471 L12.1437333,14.6917647 L14.1112,14.6917647 C16.0952,14.6917647 17.3352,13.7364706 17.3352,11.9741176 C17.3352,10.2117647 16.0952,9.25647059 14.1112,9.25647059 Z M14.0285333,13.3741176 L12.1437333,13.3741176 L12.1437333,10.6564706 L14.0533333,10.6564706 C15.1941333,10.6564706 15.7976,11.1423529 15.7976,12.0152941 C15.7976,12.8882353 15.1693333,13.3329412 14.0533333,13.3329412 L14.0285333,13.3741176 Z" id="Shape"></path>
                <path d="M20.7493333,11.5294118 C19.8705343,11.5192801 19.0282905,11.8792598 18.4300896,12.5206694 C17.8318887,13.162079 17.5333431,14.0252892 17.608,14.8976471 C17.5023223,16.0805491 18.0760902,17.2215196 19.0903951,17.8454748 C20.1047,18.4694299 21.3857,18.4694299 22.4000049,17.8454748 C23.4143098,17.2215196 23.9880777,16.0805491 23.8824,14.8976471 C23.9595414,14.0261186 23.6629838,13.1627552 23.0660473,12.5210125 C22.4691107,11.8792697 21.6275147,11.5190495 20.7493333,11.5294118 L20.7493333,11.5294118 Z M20.7493333,17.0223529 C19.7408,17.0223529 19.096,16.1988235 19.096,14.8976471 C19.096,13.5964706 19.7242667,12.7729412 20.7493333,12.7729412 C21.7744,12.7729412 22.4026667,13.5964706 22.4026667,14.8976471 C22.4026667,16.1988235 21.7496,17.0141176 20.7493333,17.0141176 L20.7493333,17.0223529 Z" id="Shape"></path>
                <polygon id="Path" points="30.4048 15.9352941 29.2392 11.6364706 28.0157333 11.6364706 26.8584 15.9352941 25.6845333 11.6364706 24.1552 11.6364706 26.1144 18.1258824 27.404 18.1258824 28.5944 13.8764706 29.7848 18.1258824 31.0744 18.1258824 33.0336 11.6364706 31.5621333 11.6364706"></polygon>
                <path d="M36.3733333,11.5294118 C35.5065621,11.5454486 34.6843046,11.9148489 34.0984342,12.5514132 C33.5125638,13.1879775 33.2143328,14.0360188 33.2733333,14.8976471 C33.20347,15.7731012 33.507067,16.6373689 34.109637,17.2784024 C34.712207,17.9194359 35.5579875,18.2779133 36.4394667,18.2658824 C37.668414,18.331845 38.8026489,17.6094848 39.2584,16.4705882 L38.0266667,15.96 C37.8275887,16.6154325 37.1995231,17.0462299 36.5138667,16.9976471 C36.0346878,17.0090448 35.571733,16.8244284 35.2328058,16.4867874 C34.8938786,16.1491464 34.7085588,15.6879486 34.72,15.2105882 L39.2832,15.2105882 L39.2832,14.7164706 C39.2997333,12.9376471 38.2912,11.5294118 36.3733333,11.5294118 Z M34.7778667,14.1070588 C34.8977045,13.3249934 35.5793048,12.7515259 36.3733333,12.7647059 C36.7423619,12.7336352 37.1069883,12.8621147 37.3743395,13.1174196 C37.6416907,13.3727245 37.7859597,13.7302106 37.7704,14.0988235 L34.7778667,14.1070588 Z" id="Shape"></path>
                <path d="M41.9037333,12.6 L41.9037333,11.6364706 L40.4157333,11.6364706 L40.4157333,18.1176471 L41.9037333,18.1176471 L41.9037333,14.7164706 C41.8769133,14.2719897 42.0424724,13.8373497 42.3585346,13.522487 C42.6745968,13.2076243 43.1108926,13.0426935 43.5570667,13.0694118 C43.7387067,13.0566206 43.9210266,13.0566206 44.1026667,13.0694118 L44.1026667,11.5870588 C43.9869333,11.5870588 43.8546667,11.5870588 43.6810667,11.5870588 C42.9406221,11.5488376 42.2459383,11.9447531 41.9037333,12.6 L41.9037333,12.6 Z" id="Path"></path>
                <path d="M47.5168,11.5294118 C46.6500288,11.5454486 45.8277713,11.9148489 45.2419009,12.5514132 C44.6560305,13.1879775 44.3577995,14.0360188 44.4168,14.8976471 C44.3469367,15.7731012 44.6505337,16.6373689 45.2531037,17.2784024 C45.8556737,17.9194359 46.7014542,18.2779133 47.5829333,18.2658824 C48.8000076,18.317447 49.9170342,17.5976024 50.3688,16.4705882 L49.0957333,15.9847059 C48.8966553,16.6401384 48.2685898,17.0709358 47.5829333,17.0223529 C47.1137557,17.0180738 46.6658931,16.8265544 46.3396032,16.4906677 C46.0133134,16.1547811 45.8358477,15.7025803 45.8469333,15.2352941 L50.4266667,15.2352941 L50.4266667,14.7411765 C50.4266667,12.9376471 49.4016,11.5294118 47.5168,11.5294118 Z M45.9213333,14.1070588 C46.0444419,13.3314117 46.7203182,12.7633053 47.5085333,12.7729412 C47.8775619,12.7418705 48.2421883,12.87035 48.5095395,13.1256549 C48.7768907,13.3809598 48.9211597,13.7384459 48.9056,14.1070588 L45.9213333,14.1070588 Z" id="Shape"></path>
                <path d="M55.8496,12.3529412 C55.3849221,11.8097346 54.6973852,11.5066693 53.9813333,11.5294118 C52.1544,11.5294118 51.1128,13.0529412 51.1128,14.8976471 C51.1128,16.7423529 52.1544,18.2658824 53.9813333,18.2658824 C54.698101,18.2923114 55.3871793,17.9885666 55.8496,17.4423529 L55.8496,18.1176471 L57.3376,18.1176471 L57.3376,9.25647059 L55.8496,9.25647059 L55.8496,12.3529412 Z M55.8496,15.1117647 C55.9170658,15.5869385 55.7731413,16.0677941 55.4554693,16.4285658 C55.1377972,16.7893376 54.6779749,16.9941414 54.1962667,16.9894118 C53.1133333,16.9894118 52.5429333,16.1658824 52.5429333,14.9141176 C52.5429333,13.6623529 53.1216,12.8388235 54.1962667,12.8388235 C55.1138667,12.8388235 55.8496,13.5058824 55.8496,14.7247059 L55.8496,15.1117647 Z" id="Shape"></path>
                <path d="M65.5629333,11.5294118 C64.8332991,11.4976091 64.1293799,11.8011796 63.6533333,12.3529412 L63.6533333,9.25647059 L62.1653333,9.25647059 L62.1653333,18.1176471 L63.6533333,18.1176471 L63.6533333,17.4341176 C64.1205828,17.9786309 64.8111896,18.2817084 65.5298667,18.2576471 C67.3485333,18.2576471 68.3901333,16.7258824 68.3901333,14.8894118 C68.3901333,13.0529412 67.3816,11.5294118 65.5629333,11.5294118 Z M65.3066667,16.9647059 C64.8249585,16.9694355 64.3651361,16.7646317 64.0474641,16.4038599 C63.729792,16.0430882 63.5858675,15.5622326 63.6533333,15.0870588 L63.6533333,14.7 C63.6533333,13.4811765 64.3477333,12.8141176 65.3066667,12.8141176 C66.3813333,12.8141176 66.96,13.6376471 66.96,14.8894118 C66.96,16.1411765 66.34,16.9647059 65.3066667,16.9647059 Z" id="Shape"></path>
                <path d="M71.8621333,16.1905882 L70.2666667,11.6364706 L68.696,11.6364706 L71.0933333,17.8870588 L70.8453333,18.4964706 C70.7577308,18.9303798 70.3415205,19.2177117 69.9029333,19.1470588 C69.7378197,19.1590679 69.5720469,19.1590679 69.4069333,19.1470588 L69.4069333,20.3905882 C69.6066798,20.420186 69.808468,20.4339547 70.0104,20.4317647 C71.0755503,20.5089154 72.0433546,19.8152957 72.3085333,18.7847059 L74.9869333,11.6858824 L73.4245333,11.6858824 L71.8621333,16.1905882 Z" id="Path"></path>
                <path d="M103.333333,10.2364292 C102.674142,10.2326739 102.040556,10.4904804 101.572533,10.9529412 L101.4568,10.3847059 L99.4810667,10.3847059 L99.4810667,21.0247059 L101.7296,20.5388235 L101.7296,17.9611765 C102.176817,18.3342781 102.74174,18.538395 103.325067,18.5376471 C104.9288,18.5376471 106.400267,17.2282353 106.400267,14.3294118 C106.400267,11.6776471 104.912267,10.2364292 103.333333,10.2364292 Z M102.796,16.52 C102.396609,16.5429334 102.008048,16.3856793 101.737867,16.0917647 L101.737867,12.7070588 C102.009203,12.4023685 102.404078,12.2359398 102.812533,12.2541176 C103.6392,12.2541176 104.201333,13.1847059 104.201333,14.3788235 C104.201333,15.5729412 103.630933,16.52 102.796,16.52 Z" id="Shape"></path>
                <path d="M110.550133,10.2364706 C108.384267,10.2364706 107.069867,12.0976471 107.069867,14.4447059 C107.069867,17.22 108.624,18.6282353 110.839467,18.6282353 C111.704123,18.6422858 112.557961,18.4353069 113.319467,18.0270588 L113.319467,16.1741176 C112.627901,16.5217294 111.861979,16.6969402 111.087467,16.6847059 C110.194667,16.6847059 109.434133,16.3635294 109.3184,15.2847059 L113.765867,15.2847059 C113.765867,15.1611765 113.765867,14.6752941 113.765867,14.4611765 C113.840267,12.0976471 112.716,10.2364706 110.550133,10.2364706 Z M109.334933,13.5882353 C109.334933,12.5505882 109.971467,12.1141176 110.5336,12.1141176 C111.095733,12.1141176 111.690933,12.5505882 111.690933,13.5882353 L109.334933,13.5882353 Z" id="Shape"></path>
                <path d="M93.4133333,11.0023529 L93.2728,10.3270588 L91.3549333,10.3270588 L91.3549333,18.3235294 L93.5704,18.3235294 L93.5704,12.9047059 C93.9801231,12.4091522 94.6554594,12.2188066 95.2650667,12.4270588 L95.2650667,10.3270588 C94.5652072,10.0539332 93.7707767,10.3436478 93.4133333,11.0023529 L93.4133333,11.0023529 Z" id="Path"></path>
                <path d="M82.2202667,12.7317647 C82.2202667,12.3694118 82.5178667,12.2294118 82.9890667,12.2294118 C83.7699937,12.2461575 84.5354613,12.4495076 85.2210667,12.8223529 L85.2210667,10.6564706 C84.512226,10.3709481 83.7536133,10.2281984 82.9890667,10.2364706 C81.1621333,10.2364706 79.9469333,11.2082353 79.9469333,12.8388235 C79.9469333,15.3917647 83.3693333,14.98 83.3693333,16.0752941 C83.3693333,16.5035294 83.0056,16.6435294 82.5426667,16.6435294 C81.6692621,16.592683 80.8199347,16.3388517 80.0626667,15.9023529 L80.0626667,18.1176471 C80.8431532,18.4644338 81.6880686,18.6439984 82.5426667,18.6447059 C84.4109333,18.6447059 85.7005333,17.6976471 85.7005333,16.0423529 C85.6592,13.2752941 82.2202667,13.7694118 82.2202667,12.7317647 Z" id="Path"></path>
                <path d="M88.6848,8.43294118 L86.4941333,8.91058824 L86.4941333,16.2647059 C86.4713099,16.8910648 86.708191,17.4991858 87.1491473,17.9462574 C87.5901037,18.393329 88.1962843,18.6399614 88.8253333,18.6282353 C89.3684221,18.6524207 89.9095297,18.5479966 90.4042667,18.3235294 L90.4042667,16.4705882 C90.1149333,16.5941176 88.7013333,17.0141176 88.7013333,15.6470588 L88.7013333,12.3529412 L90.4042667,12.3529412 L90.4042667,10.4258824 L88.7013333,10.4258824 L88.6848,8.43294118 Z" id="Path"></path>
                <polygon id="Path" points="96.1 9.63529412 98.3568 9.16588235 98.3568 7.38705882 96.1 7.85647059"></polygon>
                <rect id="Rectangle" x="96.1" y="10.3847059" width="2.2568" height="7.93882353"></rect>
            </g>
        </g>
    </g>
</svg>